<?xml version="1.0" encoding="utf-8"?>
<!-- Generator: Adobe Illustrator 19.1.0, SVG Export Plug-In . SVG Version: 6.00 Build 0)  -->
<svg version="1.1" id="Layer_1" xmlns="http://www.w3.org/2000/svg" xmlns:xlink="http://www.w3.org/1999/xlink" x="0px" y="0px"
	 viewBox="-349.2 552.3 100 100" style="enable-background:new -349.2 552.3 100 100;" xml:space="preserve">
<path d="M-293.6,645.1H-340c-1.6,0-3-1.3-3-3c0-15.3,19.3-21.4,27.6-23.3c0.1,0,0.2-0.1,0.2-0.2v-3.2c-1.9-2.5-3.3-5.4-4.2-8.4
	c-2.2-2.1-3.1-5.5-3.6-7.4c-0.8-3-1.7-7.3,0.6-10.3l0.1-0.1c-0.1-0.9-0.3-1.8-0.3-2.7c-1-7-0.2-12.2,2.4-15.4
	c1.4-1.8,3.5-2.9,5.7-3.2c1.3-4.7,7.9-9.2,13.9-8c5.8,1.2,18-0.2,18.1-0.2c0.2,0,0.3,0,0.4,0.1c0.1,0.1,0.2,0.2,0.2,0.4
	c0,1.6-0.6,3.2-1.7,4.3c9.7,6.5,8.3,19.2,7.2,24.6l0.1,0.1c2.3,3.1,1.5,7.4,0.6,10.4c-0.5,1.8-1.5,5.2-3.6,7.4
	c-0.9,3-2.3,5.8-4.2,8.3v3.3c0,0.1,0.1,0.2,0.2,0.2c1.3,0.3,2.8,0.7,4.5,1.2 M-286.4,624.1c-1.3-0.7-2.4-2-2.9-3.4
	c-1.4,0.9-2.8,1.6-4.3,2.2c-3.8,1.3-7.9,1.3-11.7,0c-1.5-0.5-3-1.3-4.3-2.2c-0.5,1.4-1.5,2.6-2.8,3.4c5.5,7.2,15.7,8.6,22.9,3.2
	C-288.3,626.3-287.3,625.2-286.4,624.1L-286.4,624.1z M-315.1,603.5c0.3,0,0.5,0.2,0.5,0.5c0.8,5,4.6,11.5,11.1,13.8
	c2.6,0.9,5.5,0.9,8.1,0c6.3-2.3,10.4-8.7,11.2-13.8c0-0.3,0.3-0.5,0.5-0.5c0.3,0,1.4-0.5,2.8-5.3c1.1-3.8,0.6-5.1,0.2-5.6
	c-0.3-0.4-0.8-0.5-1.3-0.4c-0.2,0-0.4-0.1-0.5-0.2c-0.1-0.2-0.2-0.4-0.1-0.5v-0.1c0.3-0.9,1.4-5.5-2.5-8.4c-3.4,0.8-9,1-16.6-2.2
	c-3.6-1.6-6.7-1.6-9.1-0.2c-4.8,2.9-5.5,11-5.5,11.1c0,0.3-0.3,0.5-0.6,0.5h-0.3c-0.4,0-0.8,0.1-1.1,0.5c-0.4,0.5-0.8,1.8,0.2,5.6
	C-316.5,603-315.4,603.4-315.1,603.5z M-278.9,620c8.3,1.9,23.3,6.8,23.3,22.1c0,1.6-1.4,3-3,3h-46.4"/>
</svg>
