<?xml version="1.0" encoding="utf-8"?>
<!-- Generator: Adobe Illustrator 19.1.0, SVG Export Plug-In . SVG Version: 6.00 Build 0)  -->
<svg version="1.1" id="Layer_1" xmlns="http://www.w3.org/2000/svg" xmlns:xlink="http://www.w3.org/1999/xlink" x="0px" y="0px"
	 viewBox="-457.9 552.3 100 100" style="enable-background:new -457.9 552.3 100 100;" xml:space="preserve">
<path d="M-416.3,583.3c0.5,0,1.1-0.1,1.6-0.2c3.6-0.9,5.8-4.5,4.9-8.1c-0.7-3-3.4-5.1-6.5-5.1c-0.5,0-1.1,0.1-1.6,0.2
	c-1.7,0.4-3.2,1.5-4.1,3s-1.2,3.3-0.8,5.1C-422.1,581.2-419.4,583.3-416.3,583.3z M-417.8,575.7c0.2-0.4,0.6-0.7,1.1-0.8
	c0.1,0,0.3-0.1,0.4-0.1c0.8,0,1.5,0.5,1.7,1.3c0.2,0.9-0.3,1.8-1.3,2.1c-0.9,0.2-1.8-0.4-2.1-1.3
	C-418.1,576.5-418,576.1-417.8,575.7z"/>
<path d="M-402.9,620.8c-0.7,0-1.3,0.1-2,0.2c-4.4,1.1-7.2,5.6-6.1,10c0.9,3.7,4.2,6.3,8,6.3c0.7,0,1.3-0.1,2-0.2
	c2.2-0.5,4-1.9,5.1-3.8c1.1-1.9,1.5-4.1,1-6.3C-395.7,623.4-399,620.8-402.9,620.8z M-400.1,630.8c-0.5,0.8-1.2,1.3-2,1.5
	c-1.8,0.4-3.6-0.7-4-2.4c-0.4-1.8,0.6-3.5,2.4-4c0.3-0.1,0.5-0.1,0.8-0.1c1.5,0,2.8,1,3.2,2.5C-399.5,629.2-399.6,630.1-400.1,630.8
	z"/>
<path d="M-433.4,595.4c1,0.6,2.2,1,3.5,1c2.3,0,4.5-1.2,5.7-3.2c0.9-1.5,1.2-3.3,0.8-5.1c-0.4-1.7-1.5-3.2-3-4.1c-1-0.6-2.2-1-3.5-1
	c-2.3,0-4.5,1.2-5.7,3.2c-0.9,1.5-1.2,3.3-0.8,5.1C-436,593-434.9,594.5-433.4,595.4z M-431.4,588.8c0.3-0.5,0.9-0.8,1.5-0.8
	c0.3,0,0.6,0.1,0.9,0.2c0.4,0.2,0.7,0.6,0.8,1.1c0.1,0.5,0,0.9-0.2,1.3c-0.5,0.8-1.6,1.1-2.4,0.6c-0.4-0.2-0.7-0.6-0.8-1.1
	S-431.6,589.2-431.4,588.8z"/>
<path d="M-434.2,614.8c0.6,0,1.2-0.1,1.7-0.2c1.9-0.5,3.5-1.6,4.5-3.3s1.3-3.6,0.8-5.5c-0.8-3.2-3.7-5.5-7-5.5
	c-0.6,0-1.2,0.1-1.7,0.2c-3.9,1-6.3,4.9-5.3,8.8C-440.4,612.5-437.5,614.8-434.2,614.8z M-434.7,605.4c0.2,0,0.4-0.1,0.5-0.1
	c1,0,1.9,0.7,2.2,1.7c0.1,0.6,0.1,1.2-0.3,1.7c-0.3,0.5-0.8,0.9-1.4,1c-1.2,0.3-2.4-0.5-2.7-1.6
	C-436.7,606.9-435.9,605.7-434.7,605.4z"/>
<path d="M-364.7,564.2c-1.2-1.2-2.7-1.8-4.3-1.8s-3.1,0.6-4.2,1.7l-3.3,3.1c-0.9-0.7-1.8-1.3-2.7-1.9c-7.8-5-16.9-7.6-26.4-7.6
	c-26.1,0.1-47.3,20.1-47.3,44.7c0,10,3.5,19.3,9.4,26.7c-0.2,0.4-0.4,0.8-0.5,1.3c-0.5,1.6-1.8,2.9-3.4,3.4l-3.8,1.3
	c-0.7,0.2-1.2,0.7-1.5,1.4c-0.3,0.7-0.3,1.4,0.1,2.1c2,3.9,5.9,6.3,10.3,6.3c0.6,0,1.1,0,1.7-0.1l0.3-0.1c3.7-0.6,7.3-2,10.3-4.1
	c7.1,4.1,15.5,6.4,24.4,6.4c12.5,0,24.3-4.6,33.2-12.8c1.1-1,2.1-2,3-3.1c6.3-6.8,8.2-13.4,5.1-18.2c-4-6.4-12.1-7.3-18.5-8.1
	c-3.3-0.4-6.7-0.8-8.2-1.9c-0.5-0.3-0.8-0.8-0.9-1.3l7.1-7.5c1.1-0.2,2.1-0.4,3.2-0.6c4.8-0.8,9.3-1.5,10.9-4.8
	c1.7-3.5,2.1-7.3,1.4-10.9l4.8-5.1C-362.3,570.4-362.4,566.6-364.7,564.2z M-447.9,602.4c0-21.8,19-39.6,42.2-39.6
	c8.5,0,16.7,2.4,23.7,6.8c0.6,0.4,1.2,0.8,1.7,1.2l-39.3,37.3l0,0l0,0l-14.7,14.7l-3.2,1.1c-1,0.3-1.9,0.8-2.7,1.4
	C-445,618.8-447.9,610.9-447.9,602.4z M-417.9,613.5l4,4l-11.5,11.4l-4-4L-417.9,613.5z M-441.1,639.8l-0.3,0.1
	c-1.7,0.2-3.4-0.2-4.7-1.2l0.3-0.1c3.1-1,5.6-3.5,6.6-6.6c0.5-1.6,1.8-2.9,3.4-3.4l2.3-0.8l4.9,4.9
	C-431.8,636.5-436.2,639.1-441.1,639.8z M-383.4,609.8c5.7,0.7,12.1,1.4,14.9,5.8c2.5,4-2.9,10.3-4.6,12.1c-0.9,1-1.8,1.9-2.7,2.8
	c-8,7.4-18.5,11.5-29.8,11.5c-7.4,0-14.3-1.8-20.3-4.9c0.9-1,1.7-2,2.5-3.1l14.9-14.9l13-13.7c0.5,0.6,1,1.2,1.7,1.6
	C-391.4,608.9-387.5,609.3-383.4,609.8z M-375.3,586.5c-0.3,0.6-2,1.1-3.8,1.5l4.9-5.2C-374.3,584.1-374.7,585.4-375.3,586.5z
	 M-368.2,569.3l-42.2,44.6l-3.9-3.9l44.5-42.2c0.2-0.2,0.5-0.3,0.8-0.3c0.2,0,0.5,0,0.8,0.3C-367.8,568.2-367.8,568.9-368.2,569.3z"
	/>
</svg>
