<?xml version="1.0" encoding="utf-8"?>
<!-- Generator: Adobe Illustrator 19.1.0, SVG Export Plug-In . SVG Version: 6.00 Build 0)  -->
<svg version="1.1" id="Layer_1" xmlns="http://www.w3.org/2000/svg" xmlns:xlink="http://www.w3.org/1999/xlink" x="0px" y="0px"
	 viewBox="-230 552.3 100 100" style="enable-background:new -230 552.3 100 100;" xml:space="preserve">
<g>
	<path d="M-194.9,581.7c-1.7-1.5-4.2-1.3-5.6,0.4c0,0,0,0,0,0l-16,18.2c-1.3,1.5-1.3,3.8,0,5.3l16,18.2c1.5,1.6,4.1,1.6,5.7,0.1
		c1.5-1.4,1.6-3.8,0.3-5.4l-13.7-15.6l13.7-15.6C-193.1,585.7-193.3,583.2-194.9,581.7z"/>
	<path d="M-159.4,582.1c-1.4-1.7-3.9-2-5.6-0.6c-1.7,1.4-2,3.9-0.6,5.6c0.1,0.1,0.1,0.2,0.2,0.3l13.7,15.6l-13.7,15.5
		c-1.4,1.7-1.1,4.2,0.6,5.6c1.6,1.3,4,1.2,5.4-0.3l16-18.2c1.3-1.5,1.3-3.8,0-5.3L-159.4,582.1z"/>
	<path d="M-172,565.3c-2.1-0.4-4.2,0.9-4.7,3l-14.4,66.3c-0.5,2.2,0.9,4.3,3.1,4.8c2.2,0.5,4.3-0.9,4.8-3.1l14.4-66.3
		C-168.5,567.9-169.8,565.8-172,565.3z"/>
</g>
</svg>
