<svg version="1.1" id="MHlogo" xmlns="http://www.w3.org/2000/svg" xmlns:xlink="http://www.w3.org/1999/xlink" x="0px" y="0px" xml:space="preserve" viewBox="0 0 973.9 122.83">
	<g id="horton_M">
		<path d="M12.8,61.3c0,0.2,0,9,0,9.2c0.4,20.7,2.6,20.9,13.8,23.1v2.7c-3.6-0.3-8.7-0.4-15.3-0.4C6.5,95.9,2.7,96,0,96.3v-2.7
			c2.8-0.6,5.6-1.5,7.5-4.5c2.4-3.9,2.1-11.8,2.2-18.7c0-0.2,0-9,0-9.2L12.8,61.3z"/>
		<path d="M11.3,67.9"/>
		<path d="M11,67.8"/>
		<path d="M66.8,61.6L53.3,96.2h-2.2L12.8,8.8c0,0-1.4-3.3-6.5-5C4.9,3.3,2.9,2.9,0,2.7V0c2.7,0.3,6.5,0.4,11.3,0.4
			c10.9,0,20.3-0.1,28.2-0.4L66.8,61.6z"/>
		<path d="M67,61.3"/>
		<path d="M65.1,57.8"/>
	</g>
	<g id="Meghan">
		<g class="meghan">
			<path id="meghan_m" d="M86.4,0.3h13.1c10.5,0,18.5-0.1,24.1-0.4v2.7c-2.9,0.1-5,0.5-6.3,1.1c-1.3,0.6-2.2,1.6-2.6,3.2s-0.7,4-0.7,7.5v67.5
				c0,3.4,0.2,5.9,0.7,7.4c0.5,1.6,1.4,2.6,2.7,3.2c1.3,0.6,3.4,0.9,6.3,1.1v2.7c-5.6-0.3-13.6-0.4-24.1-0.4c-10.9,0-19,0.1-24.2,0.4
				v-2.7c3.3-0.1,5.7-0.5,7.1-1.1c1.5-0.6,2.5-1.6,3.1-3.2c0.6-1.5,0.8-4,0.8-7.4V0.3"/>
			<g class="nonFirstLetter">
			<path id="meghan_e" d="M154.3,59.1c0,8.7,1.5,13.1,4.5,16.8c3,3.7,6.7,5.5,11.1,5.5c6.6,0,12.1-3,16.5-9.1l2.3,0.9c-1.3,4-3.1,7.8-5.6,11.3
				c-2.4,3.5-5.6,6.3-9.4,8.5s-8.3,3.3-13.4,3.3c-9.5,0-17.1-3-22.9-8.9c-5.7-5.9-8.6-13.5-8.6-26.4c0-8.4,1.5-15.4,4.5-21
				c3-5.6,7.1-9.7,12.4-12.4s11.3-4,18.1-4c17.1,0,25.7,10.2,25.7,30.5h-35.1C154.3,55.2,154.3,56.8,154.3,59.1z M168.1,33.8
				c-1.1-4.6-2.9-6.9-5.3-6.9c-2.5,0-4.5,1.9-6,5.8c-1.5,3.9-2.5,10.2-2.9,18.9h15.7C169.8,44.3,169.3,38.4,168.1,33.8z"/>
			<path id="meghan_g" d="M262.5,80.9c3.7,2.5,5.5,6.6,5.5,12.2c0,4.8-1.5,9.4-4.5,13.8c-3,4.4-7.5,8-13.6,10.7c-6,2.8-13.4,4.2-22.1,4.2
				c-7.8,0-14.1-0.5-18.9-1.6c-4.8-1.1-8.1-2.5-10.1-4.2c-2-1.7-3-3.5-3-5.5c0-2.5,0.9-4.1,2.7-4.9c1.8-0.8,5.1-1.5,10-2
				s8.1-1.8,9.7-3.8h-4.4c-2.3,0-4.7-0.4-7.1-1.2c-2.5-0.8-4.6-2.2-6.4-4.3c-1.8-2.1-2.7-5-2.7-8.7c0-3,0.6-5.6,1.7-7.9
				s3-4.4,5.5-6.3c2.5-2,6-4,10.4-6.1c-5.2-1.6-9.3-4-12.2-7.3c-2.9-3.3-4.3-7.4-4.3-12.5c0-4.8,1.4-8.9,4.1-12.1s6.5-5.7,11.3-7.3
				s10.3-2.4,16.6-2.4c2.9,0,5.6,0.2,8.2,0.5c-0.1-0.9-0.1-1.9-0.1-2.8c0-5.4,1.3-9.8,3.8-13c2.5-3.3,6.4-4.9,11.5-4.9
				c3.4,0,6.2,0.8,8.4,2.4c2.2,1.6,3.4,3.8,3.4,6.7c0,1.7-0.5,3.2-1.5,4.5c-1,1.4-2.3,2.4-4,3.2c-1.7,0.8-3.6,1.2-5.6,1.2
				c-3.1,0-5.6-0.6-7.5-1.8c-1.9-1.2-3.4-3-4.7-5.3c-0.6,1.8-0.9,4.2-0.9,7.1c0,1.1,0.1,2.1,0.2,3.2c6.5,1.2,11.6,3.6,15.3,7.1
				c3.7,3.5,5.5,8.1,5.5,13.7c0,4.8-1.4,8.9-4.1,12.1s-6.5,5.7-11.3,7.3s-10.3,2.4-16.6,2.4c-4.7,0-9-0.4-12.9-1.3
				c-1.9,1.2-3.3,2.3-4.1,3.3c-0.8,1-1.2,2.1-1.2,3.5c0,3,1.6,4.4,4.8,4.4H248C254,77.1,258.8,78.4,262.5,80.9z M219.6,104.2
				c-0.3,1.7-0.4,3.1-0.4,4.3c0,3.5,1,6.1,3.1,8c2.1,1.9,5.1,2.9,9.2,2.9c3.5,0,6.6-0.6,9.2-1.9c2.7-1.3,4.7-3.1,6.2-5.4
				c1.5-2.3,2.2-5,2.2-8c0-1.5-0.5-2.6-1.4-3.3c-1-0.7-2.6-1.1-4.8-1.1h-22C220.3,101,219.8,102.5,219.6,104.2z M225.3,30.6
				c-1.2,3-1.8,7.9-1.8,14.9c0,7,0.6,12,1.8,14.9c1.2,2.9,2.9,4.4,5.1,4.4c2.3,0,4-1.5,5.2-4.4c1.2-2.9,1.8-7.9,1.8-14.9
				c0-7-0.6-12-1.8-14.9c-1.2-2.9-2.9-4.4-5.2-4.4C228.2,26.1,226.5,27.6,225.3,30.6z"/>
			<path id="meghan_h" d="M325.4,23.7c7.2,0,12.3,1.8,15.3,5.4c1.4,1.6,2.4,3.8,3,6.6c0.6,2.8,1,6.4,1,11v36.9c0,2.5,0.2,4.5,0.7,5.9
				c0.5,1.4,1.3,2.4,2.4,3c1.1,0.6,2.6,0.9,4.5,0.9v2.9c-9.7-0.4-16.1-0.5-19-0.5c-3.1,0-9.6,0.2-19.3,0.5v-2.9
				c1.6,0,2.8-0.3,3.7-0.9c0.9-0.6,1.5-1.6,1.9-3c0.4-1.4,0.6-3.4,0.6-5.9V39.3c0-2.9-0.5-5.1-1.6-6.5s-2.7-2.1-5-2.1
				c-1.7,0-3.3,0.4-4.8,1.3c-1.5,0.8-2.7,2-3.7,3.5c-0.9,1.5-1.4,3.2-1.4,5v43c0,2.5,0.2,4.5,0.6,5.9c0.4,1.4,1,2.4,1.9,3
				c0.9,0.6,2.1,0.9,3.7,0.9v2.9c-9-0.4-15-0.5-17.9-0.5c-3.1,0-9.9,0.2-20.4,0.5v-2.9c1.9,0,3.4-0.3,4.5-0.9c1.1-0.6,1.9-1.6,2.4-3
				c0.5-1.4,0.7-3.4,0.7-5.9V6.1c0-4.2-0.6,3.8-1.7,1.9c-1.2-1.9-3.1-2.8-5.9-2.8V2.3c2.8,0.3,5.6,0.4,8.4,0.4
				c9.5,0,17.4-0.6,23.6-1.9v33.1C307.9,27.1,315.1,23.7,325.4,23.7z"/>
			<path id="meghan_a" d="M390.9,29.8c-1.4-2.3-4.1-3.4-7.9-3.4c-1.2,0-2.4,0.2-3.7,0.7c-1.3,0.4-2.5,1-3.5,1.7c6.1,2.3,9.1,6.4,9.1,12.3
				c0,2.1-0.5,4.1-1.6,5.8c-1.1,1.7-2.6,3.1-4.6,4.1c-2,1-4.3,1.5-6.8,1.5c-2.2,0-4.2-0.5-5.8-1.6c-1.7-1-3-2.5-3.9-4.3
				c-0.9-1.8-1.4-3.8-1.4-6c0-2.7,0.8-5.2,2.3-7.3c1.5-2.1,3.6-3.8,6.1-5.2c5.7-2.9,13-4.4,21.8-4.4c5.2,0,9.6,0.5,13.1,1.5
				s6.6,2.8,9,5.3c1.8,1.9,3,4.2,3.6,7.1s0.9,6.9,0.9,12V86c0,2.2,0.2,3.7,0.5,4.5c0.3,0.9,0.8,1.3,1.6,1.3c0.7,0,1.4-0.2,2-0.5
				s1.4-0.8,2.3-1.5l1.3,2.3c-2.1,1.8-4.6,3-7.4,3.8c-2.8,0.8-6.2,1.2-10.2,1.2c-4.8,0-8.3-1-10.5-2.9c-2.2-1.9-3.4-4.4-3.5-7.4
				c-1.9,3.1-4.6,5.6-8,7.5s-7.3,2.8-11.4,2.8c-5.4,0-9.6-1.4-12.6-4.2c-3-2.8-4.5-6.6-4.5-11.4c0-4.6,1.4-8.5,4.2-11.6
				c2.8-3.1,7.1-5.6,13.1-7.6c4.8-1.7,8.4-3.1,10.7-4.1s4.3-2.2,5.8-3.6c1.6-1.4,2.4-3,2.4-4.9V37.5C393,34.7,392.3,32.1,390.9,29.8z
				M387.7,61.3c-4.4,4.3-6.6,9.4-6.6,15.3c0,6.4,2.3,9.6,6.9,9.6c1.9,0,3.6-0.8,5-2.3V55.3C392.4,56.4,390.6,58.4,387.7,61.3z"/>
			<path id="meghan_n" d="M482.6,23.7c7.2,0,12.3,1.8,15.3,5.4c1.4,1.6,2.4,3.8,3,6.6c0.6,2.8,1,6.4,1,11v36.9c0,2.5,0.2,4.5,0.7,5.9
				c0.5,1.4,1.3,2.4,2.4,3c1.1,0.6,2.6,0.9,4.5,0.9v2.9c-9.7-0.4-16.1-0.5-19-0.5c-3.1,0-9.6,0.2-19.3,0.5v-2.9
				c1.6,0,2.8-0.3,3.7-0.9c0.9-0.6,1.5-1.6,1.9-3s0.6-3.4,0.6-5.9V39.3c0-2.9-0.5-5.1-1.6-6.5s-2.7-2.1-5-2.1c-1.7,0-3.3,0.4-4.8,1.3
				c-1.5,0.8-2.7,2-3.7,3.5c-0.9,1.5-1.4,3.2-1.4,5v43c0,2.5,0.2,4.5,0.6,5.9c0.4,1.4,1.1,2.4,2,3c0.9,0.6,2.2,0.9,3.8,0.9v2.9
				c-9.2-0.4-15.2-0.5-18-0.5c-3.1,0-9.9,0.2-20.4,0.5v-2.9c1.9,0,3.4-0.3,4.5-0.9c1.1-0.6,1.9-1.6,2.4-3c0.5-1.4,0.7-3.4,0.7-5.9
				V40.4c0-4.2-0.6-7.2-1.7-9.1c-1.2-1.9-3.1-2.8-5.9-2.8v-2.9c2.9,0.3,5.7,0.4,8.4,0.4c9.4,0,17.3-0.6,23.6-1.9v9.8
				C465.1,27.1,472.3,23.7,482.6,23.7z"/>
			</g>
		</g>
	</g>
	
	<g id="Horton">
		<g class="horton">
			<g id="horton_H">
				<path d="M552.5,81.9c0,3.4,0.2,5.9,0.7,7.4c0.5,1.6,1.4,2.6,2.7,3.2c1.3,0.6,3.4,0.9,6.3,1.1v2.7c-5.3-0.3-12.9-0.4-22.7-0.4
					c-11,0-19.1,0.1-24.2,0.4v-2.7c2.9-0.1,5-0.5,6.3-1.1c1.3-0.6,2.2-1.6,2.7-3.2c0.5-1.5,0.7-4,0.7-7.4V14.4c0-3.4-0.2-5.9-0.7-7.4
					c-0.5-1.5-1.4-2.6-2.7-3.2c-1.3-0.6-3.4-0.9-6.3-1.1V0c5.2,0.3,13.3,0.4,24.2,0.4c9.8,0,17.4-0.1,22.7-0.4v2.7
					c-2.9,0.1-5,0.5-6.3,1.1c-1.3,0.6-2.2,1.6-2.7,3.2c-0.5,1.6-0.7,4-0.7,7.4V81.9z"/>
				<path d="M562.2,46.5h20.9V14.4c0-3.4-0.2-5.9-0.7-7.4c-0.5-1.5-1.3-2.6-2.7-3.2c-1.3-0.6-3.4-0.9-6.3-1.1V0
					c5.6,0.3,13.6,0.4,24,0.4c10.4,0,18-0.1,22.8-0.4v2.7c-2.9,0.1-5,0.5-6.3,1.1c-1.3,0.6-2.2,1.6-2.6,3.2c-0.5,1.6-0.7,4-0.7,7.4
					v67.5c0,3.4,0.2,5.9,0.7,7.4c0.5,1.6,1.4,2.6,2.7,3.2c1.3,0.6,3.4,0.9,6.2,1.1v2.7c-4.8-0.3-12.4-0.4-22.8-0.4
					c-10.4,0-18.5,0.1-24,0.4v-2.7c2.9-0.1,5-0.5,6.3-1.1c1.3-0.6,2.2-1.6,2.6-3.2s0.7-4,0.7-7.5V49.2h-20.9V46.5z"/>
			</g>
			<g class="nonFirstLetter">
			<path id="horton_o" d="M686.5,33.5c6.1,5.9,9.1,15.4,9.1,28.5c0,13.1-3,19.6-9.1,25.4c-6.1,5.8-14.7,8.7-25.8,8.7
				c-11.2,0-19.8-2.9-25.9-8.7c-6.1-5.8-9.1-12.3-9.1-25.4c0-13.1,3-22.7,9.1-28.5c6.1-5.9,14.7-8.8,25.9-8.8S680.4,27.6,686.5,33.5z
				M653.7,36c-1.7,5.7-2.6,14.4-2.6,26c0,11.6,0.9,17.2,2.6,22.9c1.7,5.7,4.1,8.5,6.9,8.5c2.9,0,5.2-2.8,6.9-8.5
				c1.7-5.7,2.6-11.3,2.6-22.9c0-11.6-0.9-20.3-2.6-26s-4-8.6-6.9-8.6C657.8,27.4,655.5,30.2,653.7,36z"/>
			<path id="horton_r" d="M752.4,23.7c4.4,0,7.6,1.4,9.6,4.1c1.9,2.7,2.9,5.9,2.9,9.7c0,4.1-1.1,7.3-3.4,9.7c-2.3,2.4-5.3,3.6-9.1,3.6
				c-3.9,0-7-0.9-9-2.6c-2.1-1.7-3.1-4.1-3.1-7.1c0-5.4,2.3-9.6,7-12.7c-1.6,0-3.1,0.3-4.4,0.9c-2.3,1-4.2,2.6-5.7,4.8
				c-1.5,2.2-2.3,4.7-2.3,7.3v40.8c0,2.9,0.4,5.1,1.2,6.7c0.8,1.6,2,2.8,3.7,3.4c1.7,0.7,3.9,1,6.8,1v2.9c-11.2-0.4-18.5-0.5-22-0.5
				c-3.4,0-10.6,0.2-21.8,0.5v-2.9c1.9,0,3.4-0.3,4.5-0.9c1.1-0.6,1.9-1.6,2.4-3c0.5-1.4,0.7-3.4,0.7-5.9V40.4c0-4.2-0.6-7.2-1.7-9.1
				c-1.2-1.9-3.1-2.8-5.9-2.8v-2.9c2.9,0.3,5.7,0.4,8.4,0.4c9.4,0,17.3-0.6,23.6-1.9v9.8C738.3,27.1,744.2,23.7,752.4,23.7z"/>
			<path id="horton_t" d="M812.9,25.7v2.7h-13.3v54.5c0,1.8,0.3,3,0.9,3.8c0.6,0.8,1.7,1.1,3.2,1.1c1.1,0,2.3-0.3,3.7-1
				c1.3-0.6,2.5-1.6,3.7-3l2.1,1.7c-4.2,7.2-10.6,10.8-19.3,10.8c-6.2,0-10.9-1.6-14-4.6c-1.9-1.9-3.1-4.2-3.7-7
				c-0.6-2.8-0.9-5-0.9-10.1V28.4h-10.3v-2.7h10.3V9.5c4.9,0,9.3-0.5,13.3-1.4c3.9-1,7.7-2.5,11.2-4.5v22.2H812.9z"/>
			<path id="horton_o2" d="M877.1,33.5c6.1,5.9,9.1,14.4,9.1,27.5c0,13.1-3,20.7-9.1,26.6c-6.1,5.8-14.7,8.7-25.8,8.7
				c-11.2,0-19.8-2.9-25.9-8.7c-6.1-5.8-9.1-13.5-9.1-26.6c0-13.1,3-21.7,9.1-27.5c6.1-5.9,14.7-8.8,25.9-8.8S871,27.6,877.1,33.5z
				M844.3,36c-1.7,5.7-2.6,13.4-2.6,25c0,11.6,0.9,18.4,2.6,24.1c1.7,5.7,4.1,8.5,6.9,8.5c2.9,0,5.2-2.8,6.9-8.5
				c1.7-5.7,2.6-12.5,2.6-24.1c0-11.6-0.9-19.3-2.6-25s-4-8.6-6.9-8.6C848.4,27.4,846.1,30.2,844.3,36z"/>
			<path id="horton_n" d="M947,23.7c7.2,0,12.3,1.8,15.3,5.4c1.4,1.6,2.4,3.8,3,6.6c0.6,2.8,1,6.4,1,11v36.9c0,2.5,0.2,4.5,0.7,5.9
				c0.5,1.4,1.3,2.4,2.4,3c1.1,0.6,2.6,0.9,4.5,0.9v2.9c-9.7-0.4-16.1-0.5-19-0.5c-3.1,0-9.6,0.2-19.3,0.5v-2.9c1.6,0,2.8-0.3,3.7-0.9
				c0.9-0.6,1.5-1.6,1.9-3s0.6-3.4,0.6-5.9V39.3c0-2.9-0.5-5.1-1.6-6.5s-2.7-2.1-5-2.1c-1.7,0-3.3,0.4-4.8,1.3c-1.5,0.8-2.7,2-3.7,3.5
				c-0.9,1.5-1.4,3.2-1.4,5v43c0,2.5,0.2,4.5,0.6,5.9c0.4,1.4,1.1,2.4,2,3c0.9,0.6,2.2,0.9,3.8,0.9v2.9c-9.2-0.4-15.2-0.5-18-0.5
			c-3.1,0-9.9,0.2-20.4,0.5v-2.9c1.9,0,3.4-0.3,4.5-0.9c1.1-0.6,1.9-1.6,2.4-3c0.5-1.4,0.7-3.4,0.7-5.9V40.4c0-4.2-0.6-7.2-1.7-9.1
			c-1.2-1.9-3.1-2.8-5.9-2.8v-2.9c2.9,0.3,5.7,0.4,8.4,0.4c9.4,0,17.3-0.6,23.6-1.9v9.8C929.5,27.1,936.7,23.7,947,23.7z"/>
			</g>
		</g>
	</g>
</svg>
