<?xml version="1.0" encoding="utf-8"?>
<!-- Generator: Adobe Illustrator 19.1.0, SVG Export Plug-In . SVG Version: 6.00 Build 0)  -->
<svg version="1.1" id="Layer_1" xmlns="http://www.w3.org/2000/svg" xmlns:xlink="http://www.w3.org/1999/xlink" x="0px" y="0px"
	 viewBox="0 0 181.6 181.6" style="enable-background:new 0 0 181.6 181.6;" xml:space="preserve">
<style type="text/css">
	.st0{fill:#775CA7;}
</style>
<path class="st0" d="M12.8,103.9c0,0.2,0,9,0,9.2c0.4,20.7,2.6,20.9,13.8,23.1v2.7c-3.6-0.3-8.7-0.4-15.3-0.4
	c-4.8,0-8.5,0.1-11.3,0.4v-2.7c2.8-0.6,5.6-1.5,7.5-4.5c2.4-3.9,2.1-11.8,2.2-18.7c0-0.2,0-9,0-9.2L12.8,103.9z M11.3,110.5
	 M11,110.5 M66.8,104.2l-13.5,34.6h-2.2L12.8,51.5c0,0-1.4-3.3-6.5-5C4.9,46,2.9,45.5,0,45.4v-2.7C2.7,42.9,6.5,43,11.3,43
	c10.9,0,20.3-0.1,28.2-0.4L66.8,104.2z M67,103.9 M65.1,100.4 M113.7,124.5c0,3.4,0.2,5.9,0.7,7.4c0.5,1.6,1.4,2.6,2.7,3.2
	c1.3,0.6,3.4,0.9,6.3,1.1v2.7c-5.3-0.3-12.9-0.4-22.7-0.4c-11,0-19.1,0.1-24.2,0.4v-2.7c2.9-0.1,5-0.5,6.3-1.1
	c1.3-0.6,2.2-1.6,2.7-3.2c0.5-1.5,0.7-4,0.7-7.4V57.1c0-3.4-0.2-5.9-0.7-7.4c-0.5-1.5-1.4-2.6-2.7-3.2c-1.3-0.6-3.4-0.9-6.3-1.1
	v-2.7c5.2,0.3,13.3,0.4,24.2,0.4c9.8,0,17.4-0.1,22.7-0.4v2.7c-2.9,0.1-5,0.5-6.3,1.1c-1.3,0.6-2.2,1.6-2.7,3.2
	c-0.5,1.6-0.7,4-0.7,7.4V124.5z M123.4,89.1h20.9V57.1c0-3.4-0.2-5.9-0.7-7.4c-0.5-1.5-1.3-2.6-2.7-3.2c-1.3-0.6-3.4-0.9-6.3-1.1
	v-2.7c5.6,0.3,13.6,0.4,24,0.4c10.4,0,18-0.1,22.8-0.4v2.7c-2.9,0.1-5,0.5-6.3,1.1c-1.3,0.6-2.2,1.6-2.6,3.2c-0.5,1.6-0.7,4-0.7,7.4
	v67.5c0,3.4,0.2,5.9,0.7,7.4c0.5,1.6,1.4,2.6,2.7,3.2c1.3,0.6,3.4,0.9,6.2,1.1v2.7c-4.8-0.3-12.4-0.4-22.8-0.4
	c-10.4,0-18.5,0.1-24,0.4v-2.7c2.9-0.1,5-0.5,6.3-1.1c1.3-0.6,2.2-1.6,2.6-3.2s0.7-4,0.7-7.5V91.8h-20.9V89.1z"/>
</svg>
