<?xml version="1.0" encoding="utf-8"?>
<!-- Generator: Adobe Illustrator 19.1.0, SVG Export Plug-In . SVG Version: 6.00 Build 0)  -->
<svg version="1.1" id="Layer_1" xmlns="http://www.w3.org/2000/svg" xmlns:xlink="http://www.w3.org/1999/xlink" x="0px" y="0px"
	 viewBox="0 0 181.6 96.3" style="enable-background:new 0 0 181.6 96.3;" xml:space="preserve">
<path d="M12.8,61.3c0,0.2,0,9,0,9.2c0.4,20.7,2.6,20.9,13.8,23.1v2.7c-3.6-0.3-8.7-0.4-15.3-0.4C6.5,95.9,2.7,96,0,96.3v-2.7
	c2.8-0.6,5.6-1.5,7.5-4.5c2.4-3.9,2.1-11.8,2.2-18.7c0-0.2,0-9,0-9.2L12.8,61.3z M11.3,67.9 M11,67.8 M66.8,61.6L53.3,96.2h-2.2
	L12.8,8.8c0,0-1.4-3.3-6.5-5C4.9,3.3,2.9,2.9,0,2.7V0c2.7,0.3,6.5,0.4,11.3,0.4c10.9,0,20.3-0.1,28.2-0.4L66.8,61.6z M67,61.3
	 M65.1,57.8 M113.7,81.9c0,3.4,0.2,5.9,0.7,7.4c0.5,1.6,1.4,2.6,2.7,3.2c1.3,0.6,3.4,0.9,6.3,1.1v2.7c-5.3-0.3-12.9-0.4-22.7-0.4
	c-11,0-19.1,0.1-24.2,0.4v-2.7c2.9-0.1,5-0.5,6.3-1.1c1.3-0.6,2.2-1.6,2.7-3.2c0.5-1.5,0.7-4,0.7-7.4V14.4c0-3.4-0.2-5.9-0.7-7.4
	c-0.5-1.5-1.4-2.6-2.7-3.2c-1.3-0.6-3.4-0.9-6.3-1.1V0c5.2,0.3,13.3,0.4,24.2,0.4c9.8,0,17.4-0.1,22.7-0.4v2.7
	c-2.9,0.1-5,0.5-6.3,1.1c-1.3,0.6-2.2,1.6-2.7,3.2c-0.5,1.6-0.7,4-0.7,7.4V81.9z M123.4,46.5h20.9V14.4c0-3.4-0.2-5.9-0.7-7.4
	c-0.5-1.5-1.3-2.6-2.7-3.2c-1.3-0.6-3.4-0.9-6.3-1.1V0c5.6,0.3,13.6,0.4,24,0.4c10.4,0,18-0.1,22.8-0.4v2.7c-2.9,0.1-5,0.5-6.3,1.1
	c-1.3,0.6-2.2,1.6-2.6,3.2c-0.5,1.6-0.7,4-0.7,7.4v67.5c0,3.4,0.2,5.9,0.7,7.4c0.5,1.6,1.4,2.6,2.7,3.2c1.3,0.6,3.4,0.9,6.2,1.1v2.7
	c-4.8-0.3-12.4-0.4-22.8-0.4c-10.4,0-18.5,0.1-24,0.4v-2.7c2.9-0.1,5-0.5,6.3-1.1c1.3-0.6,2.2-1.6,2.6-3.2s0.7-4,0.7-7.5V49.2h-20.9
	V46.5z"/>
</svg>
